<svg width="60" height="60" viewBox="0 0 60 60" xmlns="http://www.w3.org/2000/svg"><title>Down</title><g fill="#6FEDD8" fill-rule="evenodd"><path d="M30.664 49.565V8.638h-1.617v40.927L16.603 37.12 15.46 38.27 29.855 52.66 44.248 38.27l-1.14-1.147-12.444 12.445z"/><path d="M29.854 0C13.392 0 0 13.392 0 29.854s13.39 29.853 29.854 29.853 29.853-13.39 29.853-29.853C59.707 13.392 46.317 0 29.854 0zm0 58.297c-15.683 0-28.443-12.76-28.443-28.443C1.41 14.17 14.17 1.41 29.855 1.41s28.443 12.76 28.443 28.446c0 15.68-12.76 28.44-28.443 28.44z"/></g></svg>