<?xml version="1.0" encoding="utf-8"?>
<!-- Generator: Adobe Illustrator 18.1.1, SVG Export Plug-In . SVG Version: 6.00 Build 0)  -->
<svg version="1.1" id="Layer_1" xmlns="http://www.w3.org/2000/svg" xmlns:xlink="http://www.w3.org/1999/xlink" x="0px" y="0px"
	 viewBox="0 0 128.7 122.7" enable-background="new 0 0 128.7 122.7" xml:space="preserve">
<ellipse fill="#73C7E7" cx="63.9" cy="61.3" rx="62.6" ry="60.1"/>
<path fill="#243672" d="M101.5,53.4l0,22.7h0c0.1,7.1-10.9,13.1-24.8,13.5c-7.8,0.2-14.8-1.4-19.5-4.1c-2.8,0.8-5.8,1.3-9.1,1.5
	c-12.8,0.8-23.5-4-23.9-10.7c0,0,0-0.1,0-0.1h0V53.5L101.5,53.4z"/>
<path fill="#FFFFFF" d="M92.4,44c1.7-1.8,2.6-3.7,2.5-5.8C94.6,31.7,83.8,27,70.8,27.7C58.1,28.3,48,33.9,47.9,40.3
	c-0.4,0-0.8,0-1.2,0.1c-12.8,0.8-22.8,6.8-22.4,13.5c0.4,6.7,11.1,11.5,23.9,10.7c3.2-0.2,6.3-0.7,9.1-1.5
	c4.7,2.7,11.7,4.3,19.5,4.1c13.9-0.4,25-6.5,24.8-13.6C101.4,49.6,97.9,46.2,92.4,44z"/>
<path fill="#243672" d="M101.5,53.4"/>
<path fill="#243672" d="M24.3,53.5"/>
</svg>
