<svg xmlns="http://www.w3.org/2000/svg" viewBox="0 0 94 82"><path fill="#FFF" d="M5.8 77.8h82.5L47 6.3z"/><path fill="#0A4169" d="M91.9 82H2.1c-.8 0-1.5-.4-1.8-1.1s-.4-1.5 0-2.1L45.2 1.1C45.6.4 46.3 0 47 0s1.5.4 1.8 1.1l44.8 77.5c.3.4.4.8.4 1.3 0 1.2-.9 2.1-2.1 2.1zM5.8 77.8h82.5L47 6.3 5.8 77.8z"/><path fill="#07AED1" d="M74.4 61l-7.9 13.7L58.6 61zM39.1 59.1L47 45.4l7.9 13.7z"/><path fill="#0A4169" d="M58.5 59.1l7.9-13.7 7.9 13.7z"/><path fill="#87C632" d="M64.6 44.7l-7.9 13.7-7.9-13.7zM9.9 75.3l7.9-13.7 7.9 13.7z"/><path fill="#0A4169" d="M29.4 75.3l7.9-13.7 7.9 13.7z"/><path fill="#07AED1" d="M35.4 61l-7.9 13.7L19.6 61z"/><path fill="#0A4169" d="M48.8 75.3l7.9-13.7 7.9 13.7z"/><path fill="#87C632" d="M54.9 61l-8 13.7L39 61zM68.4 75.3l7.9-13.7 7.9 13.7z"/></svg>