<?xml version="1.0" encoding="UTF-8"?>
<svg width="705px" height="269px" viewBox="0 0 705 269" version="1.1" xmlns="http://www.w3.org/2000/svg" xmlns:xlink="http://www.w3.org/1999/xlink" style="background: #FFFFFF;">
    <!-- Generator: Sketch 41.2 (35397) - http://www.bohemiancoding.com/sketch -->
    <title>Artboard</title>
    <desc>Created with Sketch.</desc>
    <defs>
        <path d="M96.75075,6 C96.3363088,6 96,6.33637879 96,6.75064394 C96,7.16490909 96.3363088,7.50128788 96.75075,7.50128788 L98.7725441,7.50128788 C99.1869853,7.50128788 99.5232941,7.16490909 99.5232941,6.75064394 C99.5232941,6.33637879 99.1869853,6 98.7725441,6 L96.75075,6 Z" id="path-1"></path>
        <path d="M15.7221618,4.19659091 C15.51225,4.19659091 15.3419118,4.36590909 15.3419118,4.57443182 C15.3419118,4.78295455 15.51225,4.95227273 15.7221618,4.95227273 L23.3306029,4.95227273 C23.5405147,4.95227273 23.7108529,4.78295455 23.7108529,4.57443182 C23.7108529,4.36590909 23.5405147,4.19659091 23.3306029,4.19659091 L15.7221618,4.19659091 L15.7221618,4.19659091 Z" id="path-3"></path>
    </defs>
    <g id="Page-1" stroke="none" stroke-width="1" fill="none" fill-rule="evenodd">
        <g id="Artboard">
            <g id="Group-6" transform="translate(61.000000, 40.000000)">
                <g id="Group-5" transform="translate(513.000000, 0.000000)">
                    <g id="cloudant" transform="translate(0.000000, 122.000000)">
                        <g id="Layer_1">
                            <ellipse id="Oval" fill="#73C7E7" cx="34.9444444" cy="33.2617721" rx="34.7777778" ry="33.1514511"></ellipse>
                            <path d="M55.8333333,28.9040938 L55.8333333,41.4255237 L55.8333333,41.4255237 C55.8888889,45.3419181 49.7777778,48.6515472 42.0555556,48.8721891 C37.7222222,48.9825101 33.8333333,48.0999423 31.2222222,46.6106093 C29.6666667,47.0518931 28,47.3276956 26.1666667,47.4380165 C19.0555556,47.8793004 13.1111111,45.2315972 12.8888889,41.5358447 L12.8888889,41.4806842 L12.8888889,41.4806842 L12.8888889,28.9592543 L55.8333333,28.9040938 Z" id="Shape" fill="#243672"></path>
                            <path d="M50.7777778,23.7190083 C51.7222222,22.7261195 52.2222222,21.6780703 52.1666667,20.5197002 C52,16.9342687 46,14.3417259 38.7777778,14.7278493 C31.7222222,15.0588122 26.1111111,18.1477993 26.0555556,21.6780703 C25.8333333,21.6780703 25.6111111,21.6780703 25.3888889,21.7332308 C18.2777778,22.1745147 12.7222222,25.4841438 12.9444444,29.1798962 C13.1666667,32.8756487 19.1111111,35.5233519 26.2222222,35.082068 C28,34.9717471 29.7222222,34.6959446 31.2777778,34.2546608 C33.8888889,35.7439938 37.7777778,36.6265616 42.1111111,36.5162406 C49.8333333,36.2955987 56,32.9308091 55.8888889,29.0144148 C55.7777778,26.8079954 53.8333333,24.9325389 50.7777778,23.7190083 Z" id="Shape" fill="#FFFFFF"></path>
                        </g>
                    </g>
                    <g id="Group">
                        <path d="M67.6672245,60.5617978 L67.6672245,60.5617978 L1.54625867,60.5617978 C0.957207746,60.5617978 0.44178819,60.2663743 0.220894096,59.7493834 C1.37979905e-14,59.2323925 -0.073631365,58.6415456 0.220894096,58.1984106 L33.2813769,0.81241436 C33.5759025,0.295423404 34.091322,0 34.6067416,0 C35.1221612,0 35.711212,0.295423404 35.9321062,0.81241436 L68.9189577,58.0506988 C69.1398518,58.3461222 69.2134831,58.6415456 69.2134831,59.0108249 C69.2134831,59.897095 68.5508008,60.5617978 67.6672245,60.5617978 L67.6672245,60.5617978 L67.6672245,60.5617978 Z M4.27061917,57.459852 L65.0164953,57.459852 L34.6067416,4.65291861 L4.27061917,57.459852 L4.27061917,57.459852 L4.27061917,57.459852 Z" id="Shape" fill="#0A4169"></path>
                        <g id="Shape" transform="translate(6.626823, 32.496574)">
                            <polygon fill="#07AED1" points="48.1549128 12.5554947 42.3380349 22.6737463 36.521157 12.5554947"></polygon>
                            <polygon fill="#07AED1" points="22.1630409 11.1522335 27.9799187 1.03398191 33.7967965 11.1522335"></polygon>
                            <polygon fill="#0A4169" points="36.4475257 11.1522335 42.2644036 1.03398191 48.0812814 11.1522335"></polygon>
                            <polygon fill="#87C632" points="40.9390389 0.516990956 35.1221612 10.6352425 29.3052833 0.516990956"></polygon>
                            <polygon fill="#87C632" points="0.662682286 23.1168813 6.47956013 12.9986298 12.296438 23.1168813"></polygon>
                            <polygon fill="#0A4169" points="15.0207984 23.1168813 20.8376763 12.9986298 26.6545542 23.1168813"></polygon>
                            <polygon fill="#07AED1" points="19.4386803 12.5554947 13.6218026 22.6737463 7.80492469 12.5554947"></polygon>
                            <polygon fill="#0A4169" points="29.3052833 23.1168813 35.1221612 12.9986298 40.9390389 23.1168813"></polygon>
                            <polygon fill="#87C632" points="33.7967965 12.5554947 27.9062873 22.6737463 22.0894096 12.5554947"></polygon>
                            <polygon fill="#87C632" points="43.7370309 23.1168813 49.5539086 12.9986298 55.3707865 23.1168813"></polygon>
                        </g>
                    </g>
                </g>
                <g id="loopback" transform="translate(275.000000, 25.000000)">
                    <g id="Group">
                        <polygon id="Shape" fill="#FFFFFF" points="0 34.5446651 60 0 120 34.5446651 120 103.633061 60 137.956322 0 103.633528"></polygon>
                        <polygon id="Shape" fill="#07582A" points="96 94.3331492 38.8889062 94.3331492 38.8889062 44.0659812 27.5554687 44.0659812 27.5554687 105.847103 60 105.847103 60 115.369354 96 94.3326821"></polygon>
                        <path d="M84.6665625,63.3314189 C87.1110937,59.7884841 88.4446875,55.5813367 88.4446875,51.1523179 C88.4446875,38.9732168 78.444375,29.0086251 66.2221875,29.0086251 L60,29.0086251 L60,21.47948 L27.778125,40.3016422 L66,40.3016422 C72,40.3016422 76.666875,45.1734694 76.666875,50.9309136 C76.666875,56.6883578 71.7778125,61.5601851 66,61.5601851 L42.444375,61.5601851 L42.444375,73.0746063 L76.2220312,73.0746063 C81.9998437,73.0746063 86.8889062,77.9464336 86.8889062,83.7038778 C86.8889062,86.3611957 86.0001563,88.7971093 84.2221875,90.5683431 L97.1109375,90.5683431 C97.7779687,88.3543008 98.221875,86.1397914 98.221875,83.7038778 C98.4445312,74.4034988 92.6667188,66.4315452 84.6665625,63.3314189 Z" id="Shape" fill="#6CB433"></path>
                    </g>
                </g>
                <g id="Group-3" transform="translate(0.000000, 35.000000)">
                    <rect id="Rectangle" fill="#F5F7FA" x="14.8676471" y="16.9318182" width="165" height="77.0681818"></rect>
                    <rect id="Rectangle" fill="#5AAAFA" x="14.8676471" y="13.9318182" width="165" height="9.42000008"></rect>
                    <g id="Page-1-Copy-2">
                        <g id="Group-11" transform="translate(0.000000, 0.500053)" stroke="#264A60">
                            <polyline id="Stroke-5" points="180.109631 33.3297076 180.109631 93 14.9949985 93 14.9949985 12.1969773 180.109631 12.1969773 180.109631 36.1194544"></polyline>
                            <path d="M0.994658824,93.117178 L196.109291,93.117178 L196.109291,95.4126402 C196.109291,99.7765341 192.560497,103.314155 188.182821,103.314155 L8.92112941,103.314155 C4.54345294,103.314155 0.994658824,99.7765341 0.994658824,95.4126402 L0.994658824,93.117178 Z" id="Stroke-9" fill="#FFFFFF"></path>
                            <path d="M15,13.1969773 L15,7.90151515 C15,3.53762121 18.5487941,0 22.9264706,0 L172.188162,0 C176.565838,0 180.114632,3.53762121 180.114632,7.90151515 L180.114632,13.1969773 L15,13.1969773 Z" id="Stroke-3" fill="#FFFFFF"></path>
                        </g>
                        <mask id="mask-2" fill="white">
                            <use xlink:href="#path-1"></use>
                        </mask>
                        <use id="path-1" fill="#264A60" xlink:href="#path-1"></use>
                    </g>
                    <g id="Group-2" transform="translate(161.000000, 44.000000)">
                        <rect id="Rectangle" fill="#F5F7FA" x="0.573529412" y="8.52272727" width="37.8529412" height="57.3863636"></rect>
                        <rect id="Rectangle" fill="#5AAAFA" x="0.573529412" y="8.52272727" width="37.8529412" height="6.25"></rect>
                        <g id="Page-1-Copy-2">
                            <g id="Group-11" transform="translate(0.000000, 0.251705)">
                                <path d="M38.5490338,8.399375 L0.503960294,8.399375 L0.503960294,4.22380682 C0.503960294,2.02721591 2.30140147,0.246534091 4.51866618,0.246534091 L34.5343279,0.246534091 C36.7515926,0.246534091 38.5490338,2.02721591 38.5490338,4.22380682 L38.5490338,8.399375 Z" id="Fill-1" fill="#FFFFFF"></path>
                                <path d="M38.5490338,8.399375 L0.503960294,8.399375 L0.503960294,4.22380682 C0.503960294,2.02721591 2.30140147,0.246534091 4.51866618,0.246534091 L34.5343279,0.246534091 C36.7515926,0.246534091 38.5490338,2.02721591 38.5490338,4.22380682 L38.5490338,8.399375 L38.5490338,8.399375 Z" id="Stroke-3" stroke="#264A60"></path>
                                <polyline id="Stroke-5" stroke="#264A60" points="38.5490338 23.4633523 38.5490338 65.9985795 0.503960294 65.9985795 0.503960294 8.39914773 38.5490338 8.39914773 38.5490338 25.4519886"></polyline>
                                <path d="M0.503788235,65.9985795 L38.5488618,65.9985795 L38.5488618,70.1741477 C38.5488618,72.3707386 36.7514206,74.1514205 34.5341559,74.1514205 L4.51849412,74.1514205 C2.30122941,74.1514205 0.503788235,72.3707386 0.503788235,70.1741477 L0.503788235,65.9985795 Z" id="Fill-7" fill="#FFFFFF"></path>
                                <path d="M0.503788235,65.9985795 L38.5488618,65.9985795 L38.5488618,70.1741477 C38.5488618,72.3707386 36.7514206,74.1514205 34.5341559,74.1514205 L4.51849412,74.1514205 C2.30122941,74.1514205 0.503788235,72.3707386 0.503788235,70.1741477 L0.503788235,65.9985795 L0.503788235,65.9985795 Z" id="Stroke-9" stroke="#264A60"></path>
                            </g>
                            <mask id="mask-4" fill="white">
                                <use xlink:href="#path-3"></use>
                            </mask>
                            <use id="path-1" fill="#264A60" xlink:href="#path-3"></use>
                        </g>
                    </g>
                </g>
                <path d="M215,95 L282,95" id="Line" stroke="#5A6872" stroke-width="2" stroke-linecap="square"></path>
                <g id="Group-4" transform="translate(401.000000, 35.000000)" stroke-linecap="square" stroke-width="2" stroke="#5A6872">
                    <polyline id="Line" points="0 50 18.6537547 50 18.8784955 0 89 0"></polyline>
                    <polyline id="Line" points="0 69 18.6537547 69 18.8784955 119 89 119"></polyline>
                </g>
            </g>
        </g>
    </g>
</svg>